<svg xmlns="http://www.w3.org/2000/svg" width="64" height="64" viewBox="0 0 64 64" fill="none">
  <rect width="64" height="64" rx="14" fill="#111827"/>
  <rect width="64" height="64" rx="14" fill="url(#bg)"/>
  <path d="M32 6.5 52 14v15.7c0 12.5-8.1 22.9-20 27.8-11.9-4.9-20-15.3-20-27.8V14l20-7.5Z" fill="rgba(15,23,42,0.64)" stroke="rgba(255,255,255,0.86)" stroke-width="3" stroke-linejoin="round"/>
  <circle cx="32" cy="29" r="14" stroke="#bfdbfe" stroke-width="2.5"/>
  <path d="M18 29h28M32 15c4.1 3.7 6.2 8.3 6.2 14S36.1 39.3 32 43M32 15c-4.1 3.7-6.2 8.3-6.2 14S27.9 39.3 32 43" stroke="#93c5fd" stroke-width="2" stroke-linecap="round" opacity=".82"/>
  <path d="M16 42h8l3.6-8.2 7.2 15.1 3.7-7H48" stroke="#34d399" stroke-width="4" stroke-linecap="round" stroke-linejoin="round"/>
  <circle cx="48" cy="42" r="4.4" fill="#ef4444" stroke="white" stroke-width="2.4"/>
  <defs>
    <linearGradient id="bg" x1="8" y1="7" x2="55" y2="58" gradientUnits="userSpaceOnUse">
      <stop stop-color="#0f766e"/>
      <stop offset=".52" stop-color="#2563eb"/>
      <stop offset="1" stop-color="#4f46e5"/>
    </linearGradient>
  </defs>
</svg>
