<?xml version="1.0" encoding="UTF-8" standalone="no"?>
<!DOCTYPE svg PUBLIC "-//W3C//DTD SVG 1.1//EN"
 "http://www.w3.org/Graphics/SVG/1.1/DTD/svg11.dtd">
<!-- Generated by graphviz version 15.0.0 (20260523.1842)
 -->
<!-- Title: request_flow Pages: 1 -->
<svg width="336pt" height="739pt"
 viewBox="0.00 0.00 336.00 739.00" xmlns="http://www.w3.org/2000/svg" xmlns:xlink="http://www.w3.org/1999/xlink">
<g id="graph0" class="graph" transform="scale(1 1) rotate(0) translate(4 734.5)">
<title>request_flow</title>
<polygon fill="white" stroke="none" points="-4,4 -4,-734.5 332.25,-734.5 332.25,4 -4,4"/>
<!-- start -->
<g id="node1" class="node">
<title>start</title>
<polygon fill="#4a7db5" stroke="none" points="183.38,-730.5 23.38,-730.5 23.38,-694.5 183.38,-694.5 183.38,-730.5"/>
<text xml:space="preserve" text-anchor="middle" x="103.38" y="-715.55" font-family="Arial" font-size="11.00" fill="white">Client gửi request</text>
<text xml:space="preserve" text-anchor="middle" x="103.38" y="-702.05" font-family="Arial" font-size="11.00" fill="white">GET /forecast/{disease}/{iso3}</text>
</g>
<!-- check_cache -->
<g id="node3" class="node">
<title>check_cache</title>
<path fill="#eaf1fb" stroke="#4a7db5" stroke-width="1.2" d="M141.75,-653.5C141.75,-653.5 65,-653.5 65,-653.5 59,-653.5 53,-647.5 53,-641.5 53,-641.5 53,-629.5 53,-629.5 53,-623.5 59,-617.5 65,-617.5 65,-617.5 141.75,-617.5 141.75,-617.5 147.75,-617.5 153.75,-623.5 153.75,-629.5 153.75,-629.5 153.75,-641.5 153.75,-641.5 153.75,-647.5 147.75,-653.5 141.75,-653.5"/>
<text xml:space="preserve" text-anchor="middle" x="103.38" y="-638.55" font-family="Arial" font-size="11.00">Tìm kết quả trong</text>
<text xml:space="preserve" text-anchor="middle" x="103.38" y="-625.05" font-family="Arial" font-size="11.00">bảng predictions</text>
</g>
<!-- start&#45;&gt;check_cache -->
<g id="edge1" class="edge">
<title>start&#45;&gt;check_cache</title>
<path fill="none" stroke="black" d="M103.38,-694.1C103.38,-685.55 103.38,-675.02 103.38,-665.31"/>
<polygon fill="black" stroke="black" points="106.88,-665.57 103.38,-655.57 99.88,-665.57 106.88,-665.57"/>
</g>
<!-- end_node -->
<g id="node2" class="node">
<title>end_node</title>
<polygon fill="#4a7db5" stroke="none" points="129.38,-36 11.38,-36 11.38,0 129.38,0 129.38,-36"/>
<text xml:space="preserve" text-anchor="middle" x="70.38" y="-14.3" font-family="Arial" font-size="11.00" fill="white">Client nhận response</text>
</g>
<!-- decision -->
<g id="node10" class="node">
<title>decision</title>
<polygon fill="#f5f0e8" stroke="#b8860b" stroke-width="1.4" points="103.38,-576.5 25.12,-541.5 103.37,-506.5 181.62,-541.5 103.38,-576.5"/>
<text xml:space="preserve" text-anchor="middle" x="103.38" y="-544.55" font-family="Arial" font-size="11.00">Đã có</text>
<text xml:space="preserve" text-anchor="middle" x="103.38" y="-531.05" font-family="Arial" font-size="11.00">trong cache?</text>
</g>
<!-- check_cache&#45;&gt;decision -->
<g id="edge2" class="edge">
<title>check_cache&#45;&gt;decision</title>
<path fill="none" stroke="black" d="M103.38,-617.2C103.38,-609.03 103.38,-598.85 103.38,-588.66"/>
<polygon fill="black" stroke="black" points="106.88,-588.77 103.38,-578.77 99.88,-588.77 106.88,-588.77"/>
</g>
<!-- return_precomputed -->
<g id="node4" class="node">
<title>return_precomputed</title>
<path fill="#eaf1fb" stroke="#4a7db5" stroke-width="1.2" d="M118.75,-400C118.75,-400 12,-400 12,-400 6,-400 0,-394 0,-388 0,-388 0,-376 0,-376 0,-370 6,-364 12,-364 12,-364 118.75,-364 118.75,-364 124.75,-364 130.75,-370 130.75,-376 130.75,-376 130.75,-388 130.75,-388 130.75,-394 124.75,-400 118.75,-400"/>
<text xml:space="preserve" text-anchor="middle" x="65.38" y="-385.05" font-family="Arial" font-size="11.00">Đọc từ bảng predictions</text>
<text xml:space="preserve" text-anchor="middle" x="65.38" y="-371.55" font-family="Arial" font-size="11.00">(một câu SELECT)</text>
</g>
<!-- return_precomputed&#45;&gt;end_node -->
<g id="edge10" class="edge">
<title>return_precomputed&#45;&gt;end_node</title>
<path fill="none" stroke="black" d="M62.37,-363.51C57.73,-336.57 49.38,-288 49.38,-288 49.38,-288 49.38,-288 49.38,-94 49.38,-94 56.51,-68.53 62.46,-47.27"/>
<polygon fill="black" stroke="black" points="65.77,-48.43 65.1,-37.85 59.03,-46.54 65.77,-48.43"/>
</g>
<!-- read_snapshot -->
<g id="node5" class="node">
<title>read_snapshot</title>
<path fill="#eaf1fb" stroke="#4a7db5" stroke-width="1.2" d="M238.38,-456C238.38,-456 144.38,-456 144.38,-456 138.38,-456 132.38,-450 132.38,-444 132.38,-444 132.38,-432 132.38,-432 132.38,-426 138.38,-420 144.38,-420 144.38,-420 238.38,-420 238.38,-420 244.38,-420 250.38,-426 250.38,-432 250.38,-432 250.38,-444 250.38,-444 250.38,-450 244.38,-456 238.38,-456"/>
<text xml:space="preserve" text-anchor="middle" x="191.38" y="-441.05" font-family="Arial" font-size="11.00">Đọc vector đặc trưng</text>
<text xml:space="preserve" text-anchor="middle" x="191.38" y="-427.55" font-family="Arial" font-size="11.00">từ feature_snapshots</text>
</g>
<!-- call_model -->
<g id="node6" class="node">
<title>call_model</title>
<path fill="#eaf1fb" stroke="#4a7db5" stroke-width="1.2" d="M241.12,-344C241.12,-344 157.62,-344 157.62,-344 151.62,-344 145.62,-338 145.62,-332 145.62,-332 145.62,-320 145.62,-320 145.62,-314 151.62,-308 157.62,-308 157.62,-308 241.12,-308 241.12,-308 247.12,-308 253.12,-314 253.12,-320 253.12,-320 253.12,-332 253.12,-332 253.12,-338 247.12,-344 241.12,-344"/>
<text xml:space="preserve" text-anchor="middle" x="199.38" y="-329.05" font-family="Arial" font-size="11.00">Gọi model.predict()</text>
<text xml:space="preserve" text-anchor="middle" x="199.38" y="-315.55" font-family="Arial" font-size="11.00">cho h = 1, 2, 3, 4</text>
</g>
<!-- read_snapshot&#45;&gt;call_model -->
<g id="edge5" class="edge">
<title>read_snapshot&#45;&gt;call_model</title>
<path fill="none" stroke="black" d="M192.62,-419.81C193.87,-402.72 195.8,-376.18 197.28,-355.85"/>
<polygon fill="black" stroke="black" points="200.76,-356.17 198,-345.94 193.78,-355.66 200.76,-356.17"/>
</g>
<!-- apply_threshold -->
<g id="node7" class="node">
<title>apply_threshold</title>
<path fill="#eaf1fb" stroke="#4a7db5" stroke-width="1.2" d="M283.88,-267C283.88,-267 126.88,-267 126.88,-267 120.88,-267 114.88,-261 114.88,-255 114.88,-255 114.88,-243 114.88,-243 114.88,-237 120.88,-231 126.88,-231 126.88,-231 283.88,-231 283.88,-231 289.88,-231 295.88,-237 295.88,-243 295.88,-243 295.88,-255 295.88,-255 295.88,-261 289.88,-267 283.88,-267"/>
<text xml:space="preserve" text-anchor="middle" x="205.38" y="-252.05" font-family="Arial" font-size="11.00">Phân loại mức nguy cơ</text>
<text xml:space="preserve" text-anchor="middle" x="205.38" y="-238.55" font-family="Arial" font-size="11.00">qua XGBClassifier (predict_proba)</text>
</g>
<!-- call_model&#45;&gt;apply_threshold -->
<g id="edge6" class="edge">
<title>call_model&#45;&gt;apply_threshold</title>
<path fill="none" stroke="black" d="M200.77,-307.6C201.45,-299.05 202.29,-288.52 203.07,-278.81"/>
<polygon fill="black" stroke="black" points="206.54,-279.32 203.85,-269.07 199.56,-278.76 206.54,-279.32"/>
</g>
<!-- add_coverage -->
<g id="node8" class="node">
<title>add_coverage</title>
<path fill="#eaf1fb" stroke="#4a7db5" stroke-width="1.2" d="M316.25,-190C316.25,-190 116.5,-190 116.5,-190 110.5,-190 104.5,-184 104.5,-178 104.5,-178 104.5,-166 104.5,-166 104.5,-160 110.5,-154 116.5,-154 116.5,-154 316.25,-154 316.25,-154 322.25,-154 328.25,-160 328.25,-166 328.25,-166 328.25,-178 328.25,-178 328.25,-184 322.25,-190 316.25,-190"/>
<text xml:space="preserve" text-anchor="middle" x="216.38" y="-175.05" font-family="Arial" font-size="11.00">Gắn trường data_coverage</text>
<text xml:space="preserve" text-anchor="middle" x="216.38" y="-161.55" font-family="Arial" font-size="11.00">(cảnh báo nếu ngoại suy ngoài 2010–2019)</text>
</g>
<!-- apply_threshold&#45;&gt;add_coverage -->
<g id="edge7" class="edge">
<title>apply_threshold&#45;&gt;add_coverage</title>
<path fill="none" stroke="black" d="M207.93,-230.6C209.18,-222.05 210.73,-211.52 212.15,-201.81"/>
<polygon fill="black" stroke="black" points="215.59,-202.46 213.58,-192.06 208.67,-201.44 215.59,-202.46"/>
</g>
<!-- return_json -->
<g id="node9" class="node">
<title>return_json</title>
<path fill="#eaf1fb" stroke="#4a7db5" stroke-width="1.2" d="M281.75,-113C281.75,-113 127,-113 127,-113 121,-113 115,-107 115,-101 115,-101 115,-89 115,-89 115,-83 121,-77 127,-77 127,-77 281.75,-77 281.75,-77 287.75,-77 293.75,-83 293.75,-89 293.75,-89 293.75,-101 293.75,-101 293.75,-107 287.75,-113 281.75,-113"/>
<text xml:space="preserve" text-anchor="middle" x="204.38" y="-98.05" font-family="Arial" font-size="11.00">Trả về JSON response</text>
<text xml:space="preserve" text-anchor="middle" x="204.38" y="-84.55" font-family="Arial" font-size="11.00">(horizon, week, cases, risk, r2_cv)</text>
</g>
<!-- add_coverage&#45;&gt;return_json -->
<g id="edge8" class="edge">
<title>add_coverage&#45;&gt;return_json</title>
<path fill="none" stroke="black" d="M213.59,-153.6C212.22,-145.05 210.54,-134.52 208.98,-124.81"/>
<polygon fill="black" stroke="black" points="212.46,-124.38 207.42,-115.06 205.55,-125.48 212.46,-124.38"/>
</g>
<!-- return_json&#45;&gt;end_node -->
<g id="edge9" class="edge">
<title>return_json&#45;&gt;end_node</title>
<path fill="none" stroke="black" d="M172.96,-76.42C154.65,-66.17 131.34,-53.12 111.57,-42.05"/>
<polygon fill="black" stroke="black" points="113.35,-39.04 102.92,-37.21 109.93,-45.15 113.35,-39.04"/>
</g>
<!-- decision&#45;&gt;return_precomputed -->
<g id="edge3" class="edge">
<title>decision&#45;&gt;return_precomputed</title>
<path fill="none" stroke="#2e7d32" d="M95.87,-509.38C88.98,-480.83 78.86,-438.89 72.2,-411.28"/>
<polygon fill="#2e7d32" stroke="#2e7d32" points="75.67,-410.77 69.93,-401.87 68.87,-412.41 75.67,-410.77"/>
<text xml:space="preserve" text-anchor="middle" x="99.37" y="-477.95" font-family="Arial" font-size="9.00" fill="#2e7d32"> Có &#160;</text>
</g>
<!-- decision&#45;&gt;read_snapshot -->
<g id="edge4" class="edge">
<title>decision&#45;&gt;read_snapshot</title>
<path fill="none" stroke="#c62828" d="M124.9,-515.67C138.17,-500.36 155.17,-480.76 168.66,-465.2"/>
<polygon fill="#c62828" stroke="#c62828" points="171.24,-467.57 175.15,-457.72 165.95,-462.98 171.24,-467.57"/>
<text xml:space="preserve" text-anchor="middle" x="178.84" y="-477.95" font-family="Arial" font-size="9.00" fill="#c62828"> Chưa có &#160;</text>
</g>
</g>
</svg>
